<svg xmlns="http://www.w3.org/2000/svg" xmlns:xlink="http://www.w3.org/1999/xlink" width="36" height="18" viewBox="0 0 36 18">
    <defs>
        <path id="a" d="M.224.136h5.06V5.09H.224z"/>
        <path id="c" d="M0 .066h31.866v13.213H0z"/>
        <path id="e" d="M.116.136h5.06V5.09H.116z"/>
    </defs>
    <g fill="none" fill-rule="evenodd">
        <g transform="translate(9.877 11.843)">
            <mask id="b" fill="#fff">
                <use xlink:href="#a"/>
            </mask>
            <path fill="#00A57B" d="M2.647 3.837c-.688 0-1.197-.548-1.138-1.223.06-.677.665-1.224 1.352-1.224.688 0 1.197.548 1.138 1.224-.06.675-.665 1.223-1.352 1.223M2.97.136C1.58.136.353 1.246.233 2.613c-.12 1.368.911 2.478 2.304 2.478 1.392 0 2.618-1.11 2.738-2.477C5.395 1.245 4.363.136 2.97.136" mask="url(#b)"/>
        </g>
        <path fill="#00A57B" d="M16.678 5.803h-.308l-.161 1.244h.296c.522 0 .69-.178.74-.549l.017-.132c.048-.37-.026-.563-.584-.563"/>
        <g transform="translate(2 1.176)">
            <mask id="d" fill="#fff">
                <use xlink:href="#c"/>
            </mask>
            <path fill="#00A57B" d="M24.408 7.086l.254-2.89h2.52c.239 0 .656.175.81.342l2.37 2.548h-5.954zM22.126 4.59h-1.593l-.141 1.006h1.355l-.09.63h-1.354l-.145 1.03h1.659l-.093.64h-2.372l.545-3.915h2.317l-.088.61zm-3.004 0h-1.593l-.136 1.006h1.356l-.087.63h-1.354l-.14 1.03h1.658l-.089.64h-2.372l.525-3.915h2.316l-.084.61zm-3.1.564l-.026.203c-.077.579-.328.894-.832 1.046l.681 1.488h-.835l-.615-1.376h-.265L13.95 7.89h-.716l.502-3.91h1.015c.972 0 1.38.345 1.27 1.173zm-3-.533h-1.64l-.12.975h1.386l-.08.635h-1.386l-.207 1.665h-.71l.481-3.915h2.358l-.082.64zM31.39 6.915l-2.753-2.961c-.298-.322-.921-.584-1.384-.584h-3.36l.218-2.478a.754.754 0 0 0-.768-.826H6.54a.93.93 0 0 0-.913.826l-.013.153h-2.17a.55.55 0 0 0-.541.49c-.024.269.18.488.455.488h4.784c.275 0 .479.22.455.49a.55.55 0 0 1-.54.49H1.45a.55.55 0 0 0-.54.489c-.025.27.179.489.454.489H7.223c.274 0 .478.22.454.49a.55.55 0 0 1-.54.489h-4.69a.55.55 0 0 0-.54.49c-.024.27.179.489.454.489H8.296c.274 0 .478.219.455.489a.55.55 0 0 1-.541.49H.543a.55.55 0 0 0-.541.489c-.024.27.18.49.455.49h6.92c.275 0 .479.218.455.488a.55.55 0 0 1-.54.49H4.925l-.314 3.579a.753.753 0 0 0 .768.825h2.1c.15-1.707 1.685-3.097 3.423-3.097 1.737 0 3.029 1.39 2.879 3.097h10.082c.15-1.707 1.686-3.097 3.423-3.097s3.029 1.39 2.88 3.097h.42a.931.931 0 0 0 .912-.825l.362-4.13c.04-.454-.173-1.088-.471-1.41z" mask="url(#d)"/>
        </g>
        <g transform="translate(26.37 11.843)">
            <mask id="f" fill="#fff">
                <use xlink:href="#e"/>
            </mask>
            <path fill="#00A57B" d="M2.538 3.837c-.687 0-1.196-.548-1.136-1.223.059-.677.664-1.224 1.352-1.224.688 0 1.197.548 1.137 1.224-.06.675-.666 1.223-1.353 1.223M2.863.136C1.471.136.245 1.246.125 2.613c-.12 1.368.911 2.478 2.304 2.478 1.392 0 2.618-1.11 2.738-2.477.12-1.369-.911-2.478-2.304-2.478" mask="url(#f)"/>
        </g>
    </g>
</svg>
