<svg xmlns="http://www.w3.org/2000/svg" width="55" height="14" viewBox="0 0 55 14">
    <g fill="none" fill-rule="evenodd">
        <path fill="#F15A29" d="M8.213 11.269l-.702.74a.478.478 0 0 1-.656 0l-.815-.74-3.055-2.825-.974-.897a.513.513 0 0 1 0-.695.479.479 0 0 1 .672-.007l.007.007.34.314 4.12 3.789 7.898-8.25.702-.74a.479.479 0 0 1 .672-.007l.007.006a.511.511 0 0 1 0 .695l-8.216 8.61zm9.076-8.565a1.337 1.337 0 0 0-.385-1.322A1.248 1.248 0 0 0 16.09 1a1.248 1.248 0 0 0-.905.382L13.94 2.704l-6.79 7.13L3.188 6.18l-.203-.134a1.234 1.234 0 0 0-.657-.18 1.25 1.25 0 0 0-.95.427 1.336 1.336 0 0 0 0 1.86l1.493 1.39 1.856 1.727 1.471 1.367a1.253 1.253 0 0 0 1.761.005L8.573 12l43.711.029a1.621 1.621 0 0 0 1.584-1.637v-6.05a1.62 1.62 0 0 0-1.584-1.638H17.29z"/>
        <path fill="#FFF" d="M16.43 1.964a.479.479 0 0 0-.673-.007l-.007.007-.701.74-7.9 8.25L2.984 7.1l-.34-.292a.478.478 0 0 0-.672-.007l-.006.007a.512.512 0 0 0 0 .695l.973.897 3.101 2.87.815.762a.479.479 0 0 0 .656 0l.702-.74 8.17-8.587a.512.512 0 0 0 .057-.727l-.01-.013M18.457 8.508c0-.222-.078-.391-.234-.51-.157-.118-.438-.243-.844-.375a5.981 5.981 0 0 1-.965-.389c-.646-.349-.969-.819-.969-1.41 0-.307.087-.581.26-.822.173-.24.422-.43.746-.564a2.808 2.808 0 0 1 1.092-.204c.406 0 .768.074 1.086.221.318.147.564.355.74.623.176.268.264.573.264.914H18.46c0-.26-.082-.463-.246-.607-.164-.145-.395-.217-.692-.217-.286 0-.509.06-.668.182a.573.573 0 0 0-.238.478c0 .185.093.34.28.465.186.125.46.242.822.352.666.2 1.152.449 1.457.746.304.297.457.666.457 1.109 0 .492-.186.878-.559 1.158-.372.28-.873.42-1.504.42-.437 0-.836-.08-1.195-.24-.36-.16-.633-.38-.822-.658a1.686 1.686 0 0 1-.283-.97h1.175c0 .629.375.942 1.125.942.279 0 .496-.056.653-.17a.553.553 0 0 0 .234-.474zm2.696-2.274c.3-.359.676-.539 1.129-.539.917 0 1.382.533 1.395 1.598V10h-1.13V7.324c0-.242-.051-.421-.156-.537-.104-.116-.277-.174-.52-.174-.33 0-.57.128-.718.383V10h-1.129V4h1.13v2.234zm2.9 1.614c0-.42.08-.793.242-1.121.161-.329.393-.582.697-.762.303-.18.655-.27 1.056-.27.57 0 1.036.175 1.397.524.36.349.562.823.603 1.422l.008.289c0 .648-.18 1.168-.543 1.56-.362.392-.847.588-1.457.588-.61 0-1.095-.195-1.459-.586-.363-.39-.545-.922-.545-1.594v-.05zm1.128.082c0 .4.076.707.227.92.15.212.367.318.648.318a.75.75 0 0 0 .64-.314c.155-.21.231-.545.231-1.006 0-.394-.076-.698-.23-.914a.75.75 0 0 0-.649-.325.737.737 0 0 0-.64.323c-.151.214-.227.547-.227.998zm7.075-.004c0 .65-.148 1.172-.443 1.564-.296.392-.695.588-1.197.588-.427 0-.773-.148-1.036-.445v1.992h-1.128V5.773h1.046l.04.415c.273-.329.63-.493 1.07-.493.52 0 .926.193 1.215.578.289.386.433.917.433 1.594v.059zm-1.129-.082c0-.393-.07-.697-.209-.91a.68.68 0 0 0-.607-.32c-.354 0-.598.135-.73.406v1.73c.137.279.384.418.738.418.539 0 .808-.441.808-1.324zM36.88 9.57c-.279.339-.664.508-1.156.508-.453 0-.8-.13-1.037-.39-.239-.26-.36-.642-.366-1.145v-2.77h1.13v2.73c0 .441.2.661.6.661.384 0 .647-.133.79-.398V5.773h1.133V10H36.91l-.031-.43zm3.223-1.168l.782-2.629h1.21l-1.699 4.883-.093.223c-.253.552-.67.828-1.25.828-.165 0-.331-.025-.5-.074v-.856l.171.004c.214 0 .373-.032.479-.097a.642.642 0 0 0 .248-.325l.133-.347-1.48-4.239h1.214l.785 2.63zm5.182-3.668v1.04h.722v.828h-.722V8.71c0 .156.03.268.09.336s.174.101.343.101a1.8 1.8 0 0 0 .332-.027v.856c-.221.067-.449.101-.683.101-.792 0-1.196-.4-1.211-1.2V6.603h-.618v-.829h.618V4.734h1.129zM47.554 10h-1.129V5.773h1.129V10zm-.332-5.941h1.23l-1.082 1.21h-.918l.77-1.21zm2.044 1.714l.035.489c.302-.378.707-.567 1.215-.567.448 0 .78.132 1 .395.218.263.33.656.336 1.18V10h-1.13V7.297c0-.24-.051-.414-.156-.522-.104-.108-.277-.162-.52-.162a.777.777 0 0 0-.714.407V10h-1.129V5.773h1.063z"/>
    </g>
</svg>
